<svg width="164" height="48" viewBox="0 0 164 48" fill="none" xmlns="http://www.w3.org/2000/svg">
<path d="M0 1.67776H13.3003C16.3809 1.67776 19.1133 2.25033 21.4974 3.39547C23.8816 4.54061 25.73 6.16511 27.0426 8.26897C28.3552 10.3728 29.0115 12.8362 29.0115 15.6591C29.0115 18.482 28.3552 20.9454 27.0426 23.0493C25.73 25.1531 23.8816 26.7776 21.4974 27.9228C19.1133 29.0679 16.3809 29.6405 13.3003 29.6405H0V1.67776ZM12.9788 23.3289C15.3898 23.3289 17.3185 22.6498 18.7651 21.2916C20.2384 19.9334 20.9751 18.0559 20.9751 15.6591C20.9751 13.2623 20.2384 11.3848 18.7651 10.0266C17.3185 8.66844 15.3898 7.98935 12.9788 7.98935H7.95606V23.3289H12.9788Z" fill="#323232"/>
<path d="M42.1178 7.62983C45.7342 7.62983 48.4933 8.45539 50.3953 10.1065C52.2972 11.731 53.2482 14.2344 53.2482 17.6165V29.6405H46.136V26.8442C45.0377 28.9481 42.8946 30 39.7068 30C38.0192 30 36.5592 29.7071 35.327 29.1212C34.0947 28.5353 33.1572 27.7497 32.5142 26.7643C31.8981 25.7523 31.5901 24.6072 31.5901 23.3289C31.5901 21.2783 32.3803 19.6937 33.9608 18.5752C35.5413 17.4301 37.979 16.8575 41.274 16.8575H45.6136C45.4797 14.5672 43.9394 13.4221 40.9927 13.4221C39.9479 13.4221 38.8898 13.5952 37.8183 13.9414C36.7468 14.261 35.836 14.7137 35.0859 15.2996L32.5142 10.1465C33.7197 9.34754 35.1797 8.73502 36.8941 8.30892C38.6353 7.85619 40.3766 7.62983 42.1178 7.62983ZM41.8365 25.2064C42.7205 25.2064 43.4974 24.9933 44.1671 24.5672C44.8368 24.1411 45.319 23.5153 45.6136 22.6897V20.8123H42.3187C40.0953 20.8123 38.9836 21.5446 38.9836 23.0093C38.9836 23.6751 39.2381 24.2077 39.747 24.6072C40.256 25.0067 40.9525 25.2064 41.8365 25.2064Z" fill="#323232"/>
<path d="M67.9521 22.0506L65.7019 24.3276V29.6405H58.0673V0H65.7019V15.5393L73.4972 7.98935H82.5382L73.4972 17.257L83.3016 29.6405H74.0597L67.9521 22.0506Z" fill="#323232"/>
<path d="M106.894 18.8549C106.894 18.9081 106.854 19.534 106.773 20.7324H90.9416C91.263 21.8509 91.8792 22.7164 92.7899 23.3289C93.7275 23.9148 94.8928 24.2077 96.2858 24.2077C97.3305 24.2077 98.2279 24.0613 98.978 23.7683C99.7549 23.4754 100.532 22.996 101.309 22.3302L105.327 26.4847C103.211 28.8282 100.116 30 96.0447 30C93.4998 30 91.263 29.5206 89.3343 28.5619C87.4055 27.6032 85.9054 26.2716 84.8339 24.5672C83.7892 22.8628 83.2668 20.9321 83.2668 18.775C83.2668 16.6445 83.7757 14.7403 84.7937 13.0626C85.8384 11.3582 87.2716 10.0266 89.0932 9.06791C90.9148 8.10919 92.9641 7.62983 95.2411 7.62983C97.4109 7.62983 99.3798 8.08256 101.148 8.98802C102.916 9.86684 104.309 11.1585 105.327 12.8628C106.372 14.5406 106.894 16.5379 106.894 18.8549ZM95.2812 13.0226C94.1026 13.0226 93.1114 13.3555 92.3078 14.0213C91.5309 14.6871 91.0353 15.5925 90.821 16.7377H99.7415C99.5272 15.5925 99.0182 14.6871 98.2145 14.0213C97.4377 13.3555 96.4599 13.0226 95.2812 13.0226Z" fill="#323232"/>
<path d="M117.687 10.5859C118.464 9.60053 119.468 8.86818 120.701 8.38882C121.96 7.88282 123.393 7.62983 125 7.62983V14.4607C124.304 14.3808 123.728 14.3409 123.272 14.3409C121.638 14.3409 120.352 14.7803 119.415 15.6591C118.504 16.5379 118.049 17.8828 118.049 19.6937V29.6405H110.414V7.98935H117.687V10.5859Z" fill="#323232"/>
<rect x="130" y="20" width="9" height="9" fill="#1F9D96"/>
<path d="M3.684 43.072C3.06 43.072 2.46 42.972 1.884 42.772C1.316 42.564 0.876 42.3 0.564 41.98L0.912 41.296C1.208 41.584 1.604 41.828 2.1 42.028C2.604 42.22 3.132 42.316 3.684 42.316C4.212 42.316 4.64 42.252 4.968 42.124C5.304 41.988 5.548 41.808 5.7 41.584C5.86 41.36 5.94 41.112 5.94 40.84C5.94 40.512 5.844 40.248 5.652 40.048C5.468 39.848 5.224 39.692 4.92 39.58C4.616 39.46 4.28 39.356 3.912 39.268C3.544 39.18 3.176 39.088 2.808 38.992C2.44 38.888 2.1 38.752 1.788 38.584C1.484 38.416 1.236 38.196 1.044 37.924C0.86 37.644 0.768 37.28 0.768 36.832C0.768 36.416 0.876 36.036 1.092 35.692C1.316 35.34 1.656 35.06 2.112 34.852C2.568 34.636 3.152 34.528 3.864 34.528C4.336 34.528 4.804 34.596 5.268 34.732C5.732 34.86 6.132 35.04 6.468 35.272L6.168 35.98C5.808 35.74 5.424 35.564 5.016 35.452C4.616 35.34 4.228 35.284 3.852 35.284C3.348 35.284 2.932 35.352 2.604 35.488C2.276 35.624 2.032 35.808 1.872 36.04C1.72 36.264 1.644 36.52 1.644 36.808C1.644 37.136 1.736 37.4 1.92 37.6C2.112 37.8 2.36 37.956 2.664 38.068C2.976 38.18 3.316 38.28 3.684 38.368C4.052 38.456 4.416 38.552 4.776 38.656C5.144 38.76 5.48 38.896 5.784 39.064C6.096 39.224 6.344 39.44 6.528 39.712C6.72 39.984 6.816 40.34 6.816 40.78C6.816 41.188 6.704 41.568 6.48 41.92C6.256 42.264 5.912 42.544 5.448 42.76C4.992 42.968 4.404 43.072 3.684 43.072ZM11.1388 43.06C10.5308 43.06 9.98281 42.924 9.49481 42.652C9.01481 42.372 8.63481 41.992 8.35481 41.512C8.07481 41.024 7.93481 40.468 7.93481 39.844C7.93481 39.212 8.07481 38.656 8.35481 38.176C8.63481 37.696 9.01481 37.32 9.49481 37.048C9.97481 36.776 10.5228 36.64 11.1388 36.64C11.7628 36.64 12.3148 36.776 12.7948 37.048C13.2828 37.32 13.6628 37.696 13.9348 38.176C14.2148 38.656 14.3548 39.212 14.3548 39.844C14.3548 40.468 14.2148 41.024 13.9348 41.512C13.6628 41.992 13.2828 42.372 12.7948 42.652C12.3068 42.924 11.7548 43.06 11.1388 43.06ZM11.1388 42.304C11.5948 42.304 11.9988 42.204 12.3508 42.004C12.7028 41.796 12.9788 41.508 13.1788 41.14C13.3868 40.764 13.4908 40.332 13.4908 39.844C13.4908 39.348 13.3868 38.916 13.1788 38.548C12.9788 38.18 12.7028 37.896 12.3508 37.696C11.9988 37.488 11.5988 37.384 11.1508 37.384C10.7028 37.384 10.3028 37.488 9.95081 37.696C9.59881 37.896 9.31881 38.18 9.11081 38.548C8.90281 38.916 8.79881 39.348 8.79881 39.844C8.79881 40.332 8.90281 40.764 9.11081 41.14C9.31881 41.508 9.59881 41.796 9.95081 42.004C10.3028 42.204 10.6988 42.304 11.1388 42.304ZM16.2383 43V35.908C16.2383 35.348 16.4023 34.896 16.7303 34.552C17.0583 34.208 17.5303 34.036 18.1463 34.036C18.3863 34.036 18.6183 34.068 18.8423 34.132C19.0663 34.196 19.2543 34.296 19.4063 34.432L19.1183 35.068C18.9983 34.964 18.8583 34.888 18.6983 34.84C18.5383 34.784 18.3663 34.756 18.1823 34.756C17.8223 34.756 17.5463 34.856 17.3543 35.056C17.1623 35.256 17.0663 35.552 17.0663 35.944V36.904L17.0903 37.3V43H16.2383ZM15.1103 37.408V36.7H19.0103V37.408H15.1103ZM22.1527 43.06C21.5607 43.06 21.1047 42.9 20.7847 42.58C20.4647 42.26 20.3047 41.808 20.3047 41.224V35.308H21.1567V41.176C21.1567 41.544 21.2487 41.828 21.4327 42.028C21.6247 42.228 21.8967 42.328 22.2487 42.328C22.6247 42.328 22.9367 42.22 23.1847 42.004L23.4847 42.616C23.3167 42.768 23.1127 42.88 22.8727 42.952C22.6407 43.024 22.4007 43.06 22.1527 43.06ZM19.1767 37.408V36.7H23.0767V37.408H19.1767ZM26.2025 43L23.8265 36.7H24.6425L26.8025 42.544H26.4305L28.6505 36.7H29.3825L31.5785 42.544H31.2065L33.4025 36.7H34.1825L31.7945 43H30.9905L28.8785 37.504H29.1305L27.0065 43H26.2025ZM39.2258 43V41.608L39.1898 41.38V39.052C39.1898 38.516 39.0378 38.104 38.7338 37.816C38.4378 37.528 37.9938 37.384 37.4018 37.384C36.9938 37.384 36.6058 37.452 36.2378 37.588C35.8698 37.724 35.5578 37.904 35.3018 38.128L34.9178 37.492C35.2378 37.22 35.6218 37.012 36.0698 36.868C36.5178 36.716 36.9898 36.64 37.4858 36.64C38.3018 36.64 38.9298 36.844 39.3698 37.252C39.8178 37.652 40.0418 38.264 40.0418 39.088V43H39.2258ZM37.0538 43.06C36.5818 43.06 36.1698 42.984 35.8178 42.832C35.4738 42.672 35.2098 42.456 35.0258 42.184C34.8418 41.904 34.7498 41.584 34.7498 41.224C34.7498 40.896 34.8258 40.6 34.9778 40.336C35.1378 40.064 35.3938 39.848 35.7458 39.688C36.1058 39.52 36.5858 39.436 37.1858 39.436H39.3578V40.072H37.2098C36.6018 40.072 36.1778 40.18 35.9378 40.396C35.7058 40.612 35.5898 40.88 35.5898 41.2C35.5898 41.56 35.7298 41.848 36.0098 42.064C36.2898 42.28 36.6818 42.388 37.1858 42.388C37.6658 42.388 38.0778 42.28 38.4218 42.064C38.7738 41.84 39.0298 41.52 39.1898 41.104L39.3818 41.692C39.2218 42.108 38.9418 42.44 38.5418 42.688C38.1498 42.936 37.6538 43.06 37.0538 43.06ZM42.356 43V36.7H43.172V38.416L43.088 38.116C43.264 37.636 43.56 37.272 43.976 37.024C44.392 36.768 44.908 36.64 45.524 36.64V37.468C45.492 37.468 45.46 37.468 45.428 37.468C45.396 37.46 45.364 37.456 45.332 37.456C44.668 37.456 44.148 37.66 43.772 38.068C43.396 38.468 43.208 39.04 43.208 39.784V43H42.356ZM49.696 43.06C49.04 43.06 48.464 42.924 47.968 42.652C47.472 42.372 47.084 41.992 46.804 41.512C46.524 41.024 46.384 40.468 46.384 39.844C46.384 39.22 46.516 38.668 46.78 38.188C47.052 37.708 47.42 37.332 47.884 37.06C48.356 36.78 48.884 36.64 49.468 36.64C50.06 36.64 50.584 36.776 51.04 37.048C51.504 37.312 51.868 37.688 52.132 38.176C52.396 38.656 52.528 39.212 52.528 39.844C52.528 39.884 52.524 39.928 52.516 39.976C52.516 40.016 52.516 40.06 52.516 40.108H47.032V39.472H52.06L51.724 39.724C51.724 39.268 51.624 38.864 51.424 38.512C51.232 38.152 50.968 37.872 50.632 37.672C50.296 37.472 49.908 37.372 49.468 37.372C49.036 37.372 48.648 37.472 48.304 37.672C47.96 37.872 47.692 38.152 47.5 38.512C47.308 38.872 47.212 39.284 47.212 39.748V39.88C47.212 40.36 47.316 40.784 47.524 41.152C47.74 41.512 48.036 41.796 48.412 42.004C48.796 42.204 49.232 42.304 49.72 42.304C50.104 42.304 50.46 42.236 50.788 42.1C51.124 41.964 51.412 41.756 51.652 41.476L52.132 42.028C51.852 42.364 51.5 42.62 51.076 42.796C50.66 42.972 50.2 43.06 49.696 43.06ZM57.5828 43V34.6H61.0028C61.8988 34.6 62.6828 34.78 63.3548 35.14C64.0348 35.492 64.5628 35.984 64.9388 36.616C65.3148 37.248 65.5028 37.976 65.5028 38.8C65.5028 39.624 65.3148 40.352 64.9388 40.984C64.5628 41.616 64.0348 42.112 63.3548 42.472C62.6828 42.824 61.8988 43 61.0028 43H57.5828ZM58.4708 42.232H60.9548C61.6988 42.232 62.3428 42.088 62.8868 41.8C63.4388 41.504 63.8668 41.1 64.1708 40.588C64.4748 40.068 64.6268 39.472 64.6268 38.8C64.6268 38.12 64.4748 37.524 64.1708 37.012C63.8668 36.5 63.4388 36.1 62.8868 35.812C62.3428 35.516 61.6988 35.368 60.9548 35.368H58.4708V42.232ZM67.3169 43V36.7H68.1689V43H67.3169ZM67.7489 35.308C67.5729 35.308 67.4249 35.248 67.3049 35.128C67.1849 35.008 67.1249 34.864 67.1249 34.696C67.1249 34.528 67.1849 34.388 67.3049 34.276C67.4249 34.156 67.5729 34.096 67.7489 34.096C67.9249 34.096 68.0729 34.152 68.1929 34.264C68.3129 34.376 68.3729 34.516 68.3729 34.684C68.3729 34.86 68.3129 35.008 68.1929 35.128C68.0809 35.248 67.9329 35.308 67.7489 35.308ZM73.2276 45.388C72.6516 45.388 72.0996 45.304 71.5716 45.136C71.0436 44.968 70.6156 44.728 70.2876 44.416L70.7196 43.768C71.0156 44.032 71.3796 44.24 71.8116 44.392C72.2516 44.552 72.7156 44.632 73.2036 44.632C74.0036 44.632 74.5916 44.444 74.9676 44.068C75.3436 43.7 75.5316 43.124 75.5316 42.34V40.768L75.6516 39.688L75.5676 38.608V36.7H76.3836V42.232C76.3836 43.32 76.1156 44.116 75.5796 44.62C75.0516 45.132 74.2676 45.388 73.2276 45.388ZM73.0716 42.76C72.4716 42.76 71.9316 42.632 71.4516 42.376C70.9716 42.112 70.5916 41.748 70.3116 41.284C70.0396 40.82 69.9036 40.288 69.9036 39.688C69.9036 39.088 70.0396 38.56 70.3116 38.104C70.5916 37.64 70.9716 37.28 71.4516 37.024C71.9316 36.768 72.4716 36.64 73.0716 36.64C73.6316 36.64 74.1356 36.756 74.5836 36.988C75.0316 37.22 75.3876 37.564 75.6516 38.02C75.9156 38.476 76.0476 39.032 76.0476 39.688C76.0476 40.344 75.9156 40.9 75.6516 41.356C75.3876 41.812 75.0316 42.16 74.5836 42.4C74.1356 42.64 73.6316 42.76 73.0716 42.76ZM73.1556 42.004C73.6196 42.004 74.0316 41.908 74.3916 41.716C74.7516 41.516 75.0356 41.244 75.2436 40.9C75.4516 40.548 75.5556 40.144 75.5556 39.688C75.5556 39.232 75.4516 38.832 75.2436 38.488C75.0356 38.144 74.7516 37.876 74.3916 37.684C74.0316 37.484 73.6196 37.384 73.1556 37.384C72.6996 37.384 72.2876 37.484 71.9196 37.684C71.5596 37.876 71.2756 38.144 71.0676 38.488C70.8676 38.832 70.7676 39.232 70.7676 39.688C70.7676 40.144 70.8676 40.548 71.0676 40.9C71.2756 41.244 71.5596 41.516 71.9196 41.716C72.2876 41.908 72.6996 42.004 73.1556 42.004ZM78.7544 43V36.7H79.6064V43H78.7544ZM79.1864 35.308C79.0104 35.308 78.8624 35.248 78.7424 35.128C78.6224 35.008 78.5624 34.864 78.5624 34.696C78.5624 34.528 78.6224 34.388 78.7424 34.276C78.8624 34.156 79.0104 34.096 79.1864 34.096C79.3624 34.096 79.5104 34.152 79.6304 34.264C79.7504 34.376 79.8104 34.516 79.8104 34.684C79.8104 34.86 79.7504 35.008 79.6304 35.128C79.5184 35.248 79.3704 35.308 79.1864 35.308ZM83.9691 43.06C83.3771 43.06 82.9211 42.9 82.6011 42.58C82.2811 42.26 82.1211 41.808 82.1211 41.224V35.308H82.9731V41.176C82.9731 41.544 83.0651 41.828 83.2491 42.028C83.4411 42.228 83.7131 42.328 84.0651 42.328C84.4411 42.328 84.7531 42.22 85.0011 42.004L85.3011 42.616C85.1331 42.768 84.9291 42.88 84.6891 42.952C84.4571 43.024 84.2171 43.06 83.9691 43.06ZM80.9931 37.408V36.7H84.8931V37.408H80.9931ZM90.8001 43V41.608L90.7641 41.38V39.052C90.7641 38.516 90.6121 38.104 90.3081 37.816C90.0121 37.528 89.5681 37.384 88.9761 37.384C88.5681 37.384 88.1801 37.452 87.8121 37.588C87.4441 37.724 87.1321 37.904 86.8761 38.128L86.4921 37.492C86.8121 37.22 87.1961 37.012 87.6441 36.868C88.0921 36.716 88.5641 36.64 89.0601 36.64C89.8761 36.64 90.5041 36.844 90.9441 37.252C91.3921 37.652 91.6161 38.264 91.6161 39.088V43H90.8001ZM88.6281 43.06C88.1561 43.06 87.7441 42.984 87.3921 42.832C87.0481 42.672 86.7841 42.456 86.6001 42.184C86.4161 41.904 86.3241 41.584 86.3241 41.224C86.3241 40.896 86.4001 40.6 86.5521 40.336C86.7121 40.064 86.9681 39.848 87.3201 39.688C87.6801 39.52 88.1601 39.436 88.7601 39.436H90.9321V40.072H88.7841C88.1761 40.072 87.7521 40.18 87.5121 40.396C87.2801 40.612 87.1641 40.88 87.1641 41.2C87.1641 41.56 87.3041 41.848 87.5841 42.064C87.8641 42.28 88.2561 42.388 88.7601 42.388C89.2401 42.388 89.6521 42.28 89.9961 42.064C90.3481 41.84 90.6041 41.52 90.7641 41.104L90.9561 41.692C90.7961 42.108 90.5161 42.44 90.1161 42.688C89.7241 42.936 89.2281 43.06 88.6281 43.06ZM93.9302 43V34.096H94.7822V43H93.9302ZM102.789 43.072C102.165 43.072 101.565 42.972 100.989 42.772C100.421 42.564 99.9815 42.3 99.6695 41.98L100.017 41.296C100.313 41.584 100.709 41.828 101.205 42.028C101.709 42.22 102.237 42.316 102.789 42.316C103.317 42.316 103.745 42.252 104.073 42.124C104.409 41.988 104.653 41.808 104.805 41.584C104.965 41.36 105.045 41.112 105.045 40.84C105.045 40.512 104.949 40.248 104.757 40.048C104.573 39.848 104.329 39.692 104.025 39.58C103.721 39.46 103.385 39.356 103.017 39.268C102.649 39.18 102.281 39.088 101.913 38.992C101.545 38.888 101.205 38.752 100.893 38.584C100.589 38.416 100.341 38.196 100.149 37.924C99.9655 37.644 99.8735 37.28 99.8735 36.832C99.8735 36.416 99.9815 36.036 100.197 35.692C100.421 35.34 100.761 35.06 101.217 34.852C101.673 34.636 102.257 34.528 102.969 34.528C103.441 34.528 103.909 34.596 104.373 34.732C104.837 34.86 105.237 35.04 105.573 35.272L105.273 35.98C104.913 35.74 104.529 35.564 104.121 35.452C103.721 35.34 103.333 35.284 102.957 35.284C102.453 35.284 102.037 35.352 101.709 35.488C101.381 35.624 101.137 35.808 100.977 36.04C100.825 36.264 100.749 36.52 100.749 36.808C100.749 37.136 100.841 37.4 101.025 37.6C101.217 37.8 101.465 37.956 101.769 38.068C102.081 38.18 102.421 38.28 102.789 38.368C103.157 38.456 103.521 38.552 103.881 38.656C104.249 38.76 104.585 38.896 104.889 39.064C105.201 39.224 105.449 39.44 105.633 39.712C105.825 39.984 105.921 40.34 105.921 40.78C105.921 41.188 105.809 41.568 105.585 41.92C105.361 42.264 105.017 42.544 104.553 42.76C104.097 42.968 103.509 43.072 102.789 43.072ZM109.668 43.06C109.076 43.06 108.62 42.9 108.3 42.58C107.98 42.26 107.82 41.808 107.82 41.224V35.308H108.672V41.176C108.672 41.544 108.764 41.828 108.948 42.028C109.14 42.228 109.412 42.328 109.764 42.328C110.14 42.328 110.452 42.22 110.7 42.004L111 42.616C110.832 42.768 110.628 42.88 110.388 42.952C110.156 43.024 109.916 43.06 109.668 43.06ZM106.692 37.408V36.7H110.592V37.408H106.692ZM115.155 43.06C114.619 43.06 114.151 42.96 113.751 42.76C113.351 42.56 113.039 42.26 112.815 41.86C112.599 41.46 112.491 40.96 112.491 40.36V36.7H113.343V40.264C113.343 40.936 113.507 41.444 113.835 41.788C114.171 42.124 114.639 42.292 115.239 42.292C115.679 42.292 116.059 42.204 116.379 42.028C116.707 41.844 116.955 41.58 117.123 41.236C117.299 40.892 117.387 40.48 117.387 40V36.7H118.239V43H117.423V41.272L117.555 41.584C117.355 42.048 117.043 42.412 116.619 42.676C116.203 42.932 115.715 43.06 115.155 43.06ZM123.122 43.06C122.522 43.06 121.982 42.924 121.502 42.652C121.03 42.38 120.658 42.004 120.386 41.524C120.114 41.036 119.978 40.476 119.978 39.844C119.978 39.204 120.114 38.644 120.386 38.164C120.658 37.684 121.03 37.312 121.502 37.048C121.982 36.776 122.522 36.64 123.122 36.64C123.674 36.64 124.166 36.764 124.598 37.012C125.038 37.26 125.386 37.624 125.642 38.104C125.906 38.576 126.038 39.156 126.038 39.844C126.038 40.524 125.91 41.104 125.654 41.584C125.398 42.064 125.05 42.432 124.61 42.688C124.178 42.936 123.682 43.06 123.122 43.06ZM123.182 42.304C123.63 42.304 124.03 42.204 124.382 42.004C124.742 41.796 125.022 41.508 125.222 41.14C125.43 40.764 125.534 40.332 125.534 39.844C125.534 39.348 125.43 38.916 125.222 38.548C125.022 38.18 124.742 37.896 124.382 37.696C124.03 37.488 123.63 37.384 123.182 37.384C122.742 37.384 122.346 37.488 121.994 37.696C121.642 37.896 121.362 38.18 121.154 38.548C120.946 38.916 120.842 39.348 120.842 39.844C120.842 40.332 120.946 40.764 121.154 41.14C121.362 41.508 121.642 41.796 121.994 42.004C122.346 42.204 122.742 42.304 123.182 42.304ZM125.558 43V41.104L125.642 39.832L125.522 38.56V34.096H126.374V43H125.558ZM128.747 43V36.7H129.599V43H128.747ZM129.179 35.308C129.003 35.308 128.855 35.248 128.735 35.128C128.615 35.008 128.555 34.864 128.555 34.696C128.555 34.528 128.615 34.388 128.735 34.276C128.855 34.156 129.003 34.096 129.179 34.096C129.355 34.096 129.503 34.152 129.623 34.264C129.743 34.376 129.803 34.516 129.803 34.684C129.803 34.86 129.743 35.008 129.623 35.128C129.511 35.248 129.363 35.308 129.179 35.308ZM134.537 43.06C133.929 43.06 133.381 42.924 132.893 42.652C132.413 42.372 132.033 41.992 131.753 41.512C131.473 41.024 131.333 40.468 131.333 39.844C131.333 39.212 131.473 38.656 131.753 38.176C132.033 37.696 132.413 37.32 132.893 37.048C133.373 36.776 133.921 36.64 134.537 36.64C135.161 36.64 135.713 36.776 136.193 37.048C136.681 37.32 137.061 37.696 137.333 38.176C137.613 38.656 137.753 39.212 137.753 39.844C137.753 40.468 137.613 41.024 137.333 41.512C137.061 41.992 136.681 42.372 136.193 42.652C135.705 42.924 135.153 43.06 134.537 43.06ZM134.537 42.304C134.993 42.304 135.397 42.204 135.749 42.004C136.101 41.796 136.377 41.508 136.577 41.14C136.785 40.764 136.889 40.332 136.889 39.844C136.889 39.348 136.785 38.916 136.577 38.548C136.377 38.18 136.101 37.896 135.749 37.696C135.397 37.488 134.997 37.384 134.549 37.384C134.101 37.384 133.701 37.488 133.349 37.696C132.997 37.896 132.717 38.18 132.509 38.548C132.301 38.916 132.197 39.348 132.197 39.844C132.197 40.332 132.301 40.764 132.509 41.14C132.717 41.508 132.997 41.796 133.349 42.004C133.701 42.204 134.097 42.304 134.537 42.304Z" fill="#323232"/>
</svg>
