<svg width="114" height="25" viewBox="0 0 114 25" fill="none" xmlns="http://www.w3.org/2000/svg">
<path d="M0 1.3782H10.8889C13.4109 1.3782 15.6479 1.84854 17.5998 2.78922C19.5517 3.7299 21.0649 5.06435 22.1396 6.79257C23.2142 8.52079 23.7515 10.5443 23.7515 12.8632C23.7515 15.1821 23.2142 17.2057 22.1396 18.9339C21.0649 20.6621 19.5517 21.9965 17.5998 22.9372C15.6479 23.8779 13.4109 24.3482 10.8889 24.3482H0V1.3782ZM10.6257 19.1636C12.5995 19.1636 14.1785 18.6057 15.3628 17.49C16.569 16.3744 17.1721 14.8321 17.1721 12.8632C17.1721 10.8944 16.569 9.35209 15.3628 8.2364C14.1785 7.12071 12.5995 6.56287 10.6257 6.56287H6.51357V19.1636H10.6257Z" fill="white"/>
<path d="M34.4815 6.26754C37.4423 6.26754 39.7012 6.9457 41.2583 8.30203C42.8154 9.63648 43.594 11.6928 43.594 14.4711V24.3482H37.7712V22.0512C36.872 23.7795 35.1175 24.6436 32.5077 24.6436C31.1261 24.6436 29.9308 24.4029 28.922 23.9217C27.9131 23.4404 27.1455 22.795 26.6192 21.9856C26.1148 21.1543 25.8626 20.2136 25.8626 19.1636C25.8626 17.4791 26.5095 16.1775 27.8035 15.2587C29.0974 14.318 31.0932 13.8477 33.7907 13.8477H37.3436C37.2339 11.9663 35.9729 11.0256 33.5604 11.0256C32.7051 11.0256 31.8388 11.1678 30.9616 11.4522C30.0843 11.7147 29.3387 12.0866 28.7246 12.5679L26.6192 8.33484C27.6061 7.67856 28.8014 7.1754 30.205 6.82538C31.6305 6.45349 33.056 6.26754 34.4815 6.26754ZM34.2513 20.7059C34.975 20.7059 35.611 20.5308 36.1593 20.1808C36.7076 19.8308 37.1023 19.3167 37.3436 18.6385V17.0963H34.646C32.8257 17.0963 31.9156 17.6979 31.9156 18.9011C31.9156 19.448 32.1239 19.8855 32.5406 20.2136C32.9573 20.5418 33.5275 20.7059 34.2513 20.7059Z" fill="white"/>
<path d="M55.6319 18.1135L53.7897 19.9839V24.3482H47.5393V0H53.7897V12.7648L60.1717 6.56287H67.5734L60.1717 14.1758L68.1985 24.3482H60.6322L55.6319 18.1135Z" fill="white"/>
<path d="M87.5133 15.4884C87.5133 15.5321 87.4804 16.0462 87.4146 17.0306H74.4533C74.7164 17.9494 75.2208 18.6604 75.9665 19.1636C76.7341 19.6449 77.6881 19.8855 78.8285 19.8855C79.6839 19.8855 80.4185 19.7652 81.0326 19.5245C81.6686 19.2839 82.3046 18.8901 82.9406 18.3432L86.2303 21.7559C84.4978 23.681 81.9647 24.6436 78.6312 24.6436C76.5477 24.6436 74.7164 24.2498 73.1374 23.4623C71.5583 22.6747 70.3302 21.5809 69.4529 20.1808C68.5976 18.7807 68.17 17.1947 68.17 15.4227C68.17 13.6726 68.5867 12.1085 69.42 10.7303C70.2754 9.33021 71.4487 8.2364 72.94 7.44886C74.4313 6.66131 76.1091 6.26754 77.9732 6.26754C79.7496 6.26754 81.3616 6.63944 82.8091 7.38323C84.2565 8.10514 85.3969 9.16614 86.2303 10.5662C87.0856 11.9444 87.5133 13.5851 87.5133 15.4884ZM78.0061 10.6975C77.0411 10.6975 76.2297 10.9709 75.5717 11.5178C74.9357 12.0647 74.53 12.8085 74.3546 13.7492H81.6577C81.4822 12.8085 81.0655 12.0647 80.4076 11.5178C79.7716 10.9709 78.9711 10.6975 78.0061 10.6975Z" fill="white"/>
<path d="M96.3494 8.6958C96.9854 7.88638 97.8079 7.28479 98.8167 6.89101C99.8475 6.47537 101.021 6.26754 102.337 6.26754V11.8788C101.766 11.8132 101.295 11.7803 100.922 11.7803C99.5843 11.7803 98.5316 12.1413 97.764 12.8632C97.0183 13.5851 96.6455 14.6899 96.6455 16.1775V24.3482H90.3951V6.56287H96.3494V8.6958Z" fill="white"/>
<rect x="106.852" y="17.3071" width="7.14852" height="6.9604" fill="#1F9D96"/>
</svg>
